<?xml version="1.0" encoding="utf-8"?>
<!-- Generator: Adobe Illustrator 16.0.4, SVG Export Plug-In . SVG Version: 6.00 Build 0)  -->
<!DOCTYPE svg PUBLIC "-//W3C//DTD SVG 1.1//EN" "http://www.w3.org/Graphics/SVG/1.1/DTD/svg11.dtd">
<svg version="1.1" id="Layer_1" xmlns="http://www.w3.org/2000/svg" xmlns:xlink="http://www.w3.org/1999/xlink" x="0px" y="0px"
	 width="720px" height="720px" viewBox="0 0 720 720" enable-background="new 0 0 720 720" xml:space="preserve">
<g>
	<path fill-rule="evenodd" clip-rule="evenodd" d="M460.686,497.01c-63.039-20.499-79.303-90.067-11.947-130.262
		c-15.854-31.966-22.322-65.523-13.018-100.748c14.326-54.236,57.312-80.846,122.83-77.178c37.545,2.101,75.115,3.964,112.699,4.955
		c12.512,0.331,17.035,4.28,16.879,17.074c-0.15,12.207-4.678,16.27-16.32,15.652c-12.281-0.652-24.629-0.148-39.525-0.148
		c25.824,37.133,29.967,75.234,17.699,114.693c-13.82,44.449-51.639,70.802-97.754,71.703c-26.232,0.51-50.99-2.783-73.9-16.892
		c-15.197-9.356-22.941,5.114-31.123,13.063c-10.594,10.296-9.906,27.401-0.006,38.968c14.5,16.938,34.992,20.48,55.469,22.949
		c38.422,4.629,77.488,5.833,115.248,13.545c47.426,9.685,69.668,36.062,74.045,78.042c4.146,39.76-16.623,74.79-57.303,94.562
		c-43.264,21.025-89.031,22.194-135.613,15.236c-27.041-4.04-52.359-12.176-72.203-31.97
		c-32.174-32.095-33.227-101.025,17.631-132.525C449.273,504.757,453.904,501.507,460.686,497.01z M545.139,647.339
		c22.523-5.142,44.904-7.841,65.441-15.492c31.781-11.84,45.605-34.659,43.555-64.088c-1.754-25.159-19.16-45.284-50.742-52.879
		c-21.451-5.156-44.189-4.673-66.047-8.469c-33.189-5.763-57.906,9.405-79.207,31.287c-30.85,31.696-22.076,77.606,18.936,93.828
		C498.412,639.969,522.197,642.229,545.139,647.339z M464.508,299.549c-0.049,48.34,32.205,82.126,78.762,82.509
		c46.16,0.382,80.91-34.629,80.783-81.378c-0.129-46.556-35.295-82.36-80.617-82.084
		C498.021,218.873,464.551,253.203,464.508,299.549z"/>
	<path fill-rule="evenodd" clip-rule="evenodd" d="M84.297,226.882c-16.761,0-29.882-0.672-42.9,0.193
		c-12.453,0.828-13.853-5.683-13.877-15.714c-0.024-10.384,0.794-18.162,14.261-17.494c13.006,0.647,26.071,0.142,40.035,0.142
		c1.436-23.415,1.33-45.613,4.424-67.355c7.787-54.694,50.28-87.219,105.282-82.186c5.693,0.521,11.416,0.759,17.093,1.403
		c31.46,3.566,34.978,10.962,17.854,39.869c-3.84-1.268-7.968-2.586-12.064-3.994c-48.937-16.822-87.735,6.905-93.477,58.312
		c-1.882,16.836-0.297,34.059-0.297,53.932c23.526,0,46.178,0.872,68.728-0.296c15.928-0.824,21.559,4.542,20.161,20.499
		c-0.84,9.589-3.833,12.993-13.333,12.83c-24.499-0.421-49.011-0.141-75.602-0.141c0,100.972,0,200.664,0,301.344
		c-12.672,0-23.278,0-36.287,0C84.297,428.43,84.297,328.76,84.297,226.882z"/>
	<path fill-rule="evenodd" clip-rule="evenodd" d="M324.16,528.566c-11.892,0-21.986,0-33.475,0
		c-0.357-5.288-0.977-10.214-0.979-15.142c-0.057-100.556,0.166-201.112-0.303-301.666c-0.061-12.97,2.825-18.357,16.935-18.196
		c13.465,0.154,19.08,3.019,18.987,18.029c-0.612,100.553-0.31,201.11-0.351,301.666
		C324.972,517.768,324.507,522.276,324.16,528.566z"/>
	<path fill-rule="evenodd" clip-rule="evenodd" d="M331.123,113.407c-0.32,14.284-10.174,23.5-24.545,22.957
		c-13.337-0.505-22.35-10.289-22.191-24.088c0.166-14.24,10.351-24.523,23.979-24.214C321.57,88.361,331.439,99.35,331.123,113.407z
		"/>
</g>
</svg>
